<?xml version="1.0" encoding="UTF-8"?>
<svg id="Layer_1" xmlns="http://www.w3.org/2000/svg" xmlns:xlink="http://www.w3.org/1999/xlink" version="1.1" viewBox="0 0 1200 800">
  <!-- Generator: Adobe Illustrator 30.0.0, SVG Export Plug-In . SVG Version: 2.1.1 Build 123)  -->
  <defs>
    <style>
      .st0, .st1, .st2, .st3, .st4, .st5, .st6, .st7, .st8, .st9, .st10, .st11 {
        fill: none;
      }

      .st12 {
        fill: #f6f4b6;
      }

      .st12, .st13, .st14, .st15, .st16, .st17, .st18, .st19, .st20, .st21, .st22, .st23, .st24, .st25, .st26, .st27, .st28, .st29, .st30, .st31 {
        fill-rule: evenodd;
      }

      .st1 {
        stroke: #fff;
      }

      .st1, .st2, .st3, .st4, .st5, .st6, .st7, .st8, .st10, .st11 {
        stroke-width: .1px;
      }

      .st1, .st4, .st5, .st7, .st8, .st9 {
        stroke-miterlimit: 10;
      }

      .st32, .st29 {
        fill: #f6d60a;
      }

      .st13 {
        fill: #fff;
      }

      .st14 {
        fill: #f9c814;
      }

      .st15 {
        fill: #f7e400;
      }

      .st16 {
        fill: #ef9121;
      }

      .st2 {
        stroke: #f3b21c;
      }

      .st2, .st3, .st6, .st10, .st11 {
        stroke-miterlimit: 392.9;
      }

      .st3 {
        stroke: #f7e400;
      }

      .st17 {
        fill: #f8d30b;
      }

      .st4 {
        stroke: #0664ae;
      }

      .st18 {
        fill: #fad10b;
      }

      .st19 {
        fill: #0664ae;
      }

      .st33 {
        clip-path: url(#clippath-1);
      }

      .st20 {
        fill: #f6d908;
      }

      .st21 {
        fill: #1f74ba;
      }

      .st22 {
        fill: #f9cb13;
      }

      .st23 {
        fill: #f9d10e;
      }

      .st24 {
        fill: #f9d00d;
      }

      .st25 {
        fill: #face0f;
      }

      .st5, .st11 {
        stroke: #f9d00d;
      }

      .st6 {
        stroke: #f6f4b6;
      }

      .st7 {
        stroke: #1f74ba;
      }

      .st8, .st10 {
        stroke: #bca531;
      }

      .st26 {
        fill: #f8d409;
      }

      .st9 {
        stroke: #cfd1d0;
        stroke-width: 2.9px;
      }

      .st27 {
        fill: #f9d606;
      }

      .st28 {
        fill: #bca531;
      }

      .st30 {
        fill: #facd11;
      }

      .st31 {
        fill: #f3b21c;
      }

      .st34 {
        clip-path: url(#clippath);
      }
    </style>
    <clipPath id="clippath">
      <path class="st0" d="M992.7,326.7c-.5.3-.8.5-1,.3-.7.2,2.4,3.3,1.7,3.1l.5,2.4c0,1.7,1.2,1.9.9,3.6.7,0,1.3-.2,1.7-.7.9-.7,1.5-1.7,1.9-2.9.3-1.2.9-4.3-1.7-5.7l-1.9-.5-2.1.3h0Z"/>
    </clipPath>
    <clipPath id="clippath-1">
      <path class="st0" d="M880.8,326.3c-2.6,1.4-1.9,4.5-1.7,5.7.5,1.3,1.1,2.2,2.1,2.9.5.5,1,.7,1.7.7-.3-1.7.7-1.9.7-3.6l.5-2.4c-.5.2,2.4-2.7,1.7-2.9l-1-.3-1.9-.5c-.7,0-1.4.2-2.1.7v-.2h0Z"/>
    </clipPath>
  </defs>
  <path class="st16" d="M1061.1,318.9l.3,1v7.9h-245.3v-8.1l.3-.9h0c0-1.1,0-2.2-.3-3.2,0-.8-.3-1.9.3-2.5h.2c.9-.7,1.8-1.3,2.7-1.8,2.6-1.8,5.2-3.6,7.8-5.5l6.2-4.1c.2-.4.3-.8.4-1.2v-16.1c1.2-1.4,3.2-1.7,4.8-2.4l9.8-3.6c2.9-1,6-.3,9.1-.5h168.5c3.4-.2,6.3,1.7,9.4,2.6l7.6,2.9c.4.2.9.6,1.2,1v13.7c0,1.2,0,2.4.3,3.6.6.1,1.1.5,1.5,1.2,1.1.6,2.1,1.2,3.2,1.9,1,.6,2,1.3,3,2.1l9.4,6.5c0,.8,0,1.7-.2,2.6,0,1-.2,2-.2,2.9h0Z"/>
  <path class="st32" d="M815.9,319.3h245.4v189.8c0,6.6-5.3,11.9-11.9,11.9h-221.6c-6.6,0-11.9-5.3-11.9-11.9v-189.8h0Z"/>
  <path class="st0" d="M816.5,319.1l-.3.7v189.6c.7,3.3,2.4,6.4,4.8,8.7l.5.2c1.4,1.3,3,2.1,4.8,2.6l1.7.2,2.1.2h102.1l2.1-.2v-.5l.2-.9,6.7-36.3v-1.5h-27.9l-6.9-.3-11.7-.3-14.6-.5c-3.8-.2-7.5-.3-11.3-.3-2.6-.2-5.1-.3-7.5-.3-4.1-.3-8.2,0-12.3-.5-4.3,0-8.7-.2-13-.5l4.3-.3c3.3-.3,6.5,0,9.6-.5l10.1-.5c2.9-.3,5.8,0,8.9-.5l10.3-.5c2.9-.3,5.8,0,8.6-.5l5-.2,5.1-.3,9.8-.5-.9-3.8c-.2-.9-1.2-.7-1.7-.9l-22.3-3.1c.2-.3.6-.5,1-.3h.5l17.3-1.4,3.9-.3c-.5-1.8-1-3.6-1.7-5.3l-37-5.7,9.6-1.2h.3l30.7-3.4h39.2c.3,0,.6-.1.9-.3l3.1-16.6c1.4-7.8,3.9-15.3,7.4-22.5,5.8-11.4,14.8-20.9,25.7-27.4,13.7-7.9,29.6-11.1,45.2-9.3,2.4.7,5.1,1.4,6.9,3.1,1.7,1.4,2.9,3.1,3.4,5.1,1.5,4.6,2.6,9.3,3.3,14.1,0,1.9.3,4.1-.7,5.8-1.1,1.6-2.7,2.6-4.6,3.1-6.9,1.7-13.7,0-20.4,1.7-5.5,1.1-10.4,4.2-13.9,8.6-4,5.4-6.5,11.3-7.5,17.8l-3.1,17h19.7c2.7,0,5.2,1.5,6.3,3.9,1.4,3.1,1,6.9.7,10.1-.4,3.7-1.5,7.4-3.1,10.8-1.3,3.1-3.7,5.5-6.9,6.7-1.7.6-3.5.7-5.3.5h-17.3l-2.4,12.9-4.6,25.2v1.2h68.7c2.2,0,4.3-.6,6.3-1.5.9-.6,1.8-1.2,2.7-1.9,1.4-1,1.2-1.7,2.1-2.4.9-1.7,1.5-3.4,1.9-5.1h.5v-189.9l-.3-1h-244.7v-.6Z"/>
  <g>
    <path class="st11" d="M1061.4,320v190.1h-.5c-.3,1.7-1,3.4-1.9,5.1-.9.7-.9,1.4-2.1,2.4-.8.7-1.8,1.3-2.9,1.9-1.9.9-4,1.4-6.2,1.5h-68.7v-1.2l4.6-25.2c.7-4.2,1.5-8.5,2.4-12.9h17.3c1.8.2,3.6,0,5.3-.5,3.1-1.2,5.6-3.6,6.9-6.7,1.6-3.4,2.7-7.1,3.1-10.8.7-3.4.5-6.8-.7-10.1-1.1-2.5-3.6-4-6.3-4h-19.7l3.1-17c1-6.5,3.5-12.5,7.5-17.8,3.5-4.4,8.4-7.4,13.9-8.6,6.7-1.7,13.5,0,20.4-1.7,1.7-.5,3.6-1.4,4.6-3.1s.7-3.9.7-5.8c-.7-4.8-1.8-9.5-3.2-14.1-.7-2.1-1.8-3.8-3.4-5.1-1.7-1.7-4.5-2.4-6.9-3.1-3.8-.5-7.7-.5-11.5-.2-25.2.1-48.2,14.4-59.5,36.9-3.5,7.1-6,14.7-7.4,22.4l-3.1,16.6c-.3.5-.7.6-1.2.3h-38.9l-30.7,3.4h-.3l-9.6,1.2,37,5.7c.6,1.7,1.1,3.5,1.7,5.3l-3.9.3-17.1,1.4c-.7,0-1.3.1-1.7.3l22.3,3.1c.5.2,1.5,0,1.7.7l.9,3.9-9.8.5c-3.3.1-6.7.3-10.1.5-2.8.5-5.7.2-8.6.5l-10.3.5c-3.1.5-6,.2-8.9.5-3.4.1-6.7.3-9.9.5-3.3.5-6.5.2-9.8.5l-4.3.3c4.3.3,8.7.5,13,.5,4.1.5,8.2.2,12.3.5,2.4,0,4.9.1,7.5.3,3.8,0,7.5.1,11.3.3l14.4.5c4,.2,7.9.3,11.8.3,2.3.2,4.6.3,6.8.3h27.9v1.6l-6.7,36.3-.2.9v.5c-.8.2-1.8.3-2.9.2h-101.1c-1.1,0-2.4,0-3.8-.3-1.8-.5-3.4-1.4-4.8-2.7h-.5c-2.4-2.4-4.1-5.4-4.8-8.7v-189.6l.3-.9h244.6l.3,1,.3.6Z"/>
    <path class="st12" d="M1061.4,313.5l-9.4-6.5c-1-.7-2-1.4-3-2.1s-2.1-1.3-3.2-1.9c-.5-.7-1-1.1-1.5-1.2-.2-1.2-.3-2.5-.3-3.6v-13.7c-.3-.5-.8-.8-1.2-1l-7.6-2.9c-3.1-.9-6-2.7-9.4-2.6h-168.5c-3.1.2-6.2-.5-9.1.5l-9.8,3.6c-1.5.7-3.6,1-4.8,2.4v16.1c0,.4-.2.8-.4,1.2l-6.2,4.1c-2.6,1.9-5.2,3.7-7.8,5.5-.9.6-1.8,1.2-2.7,1.7,0,0,0,0-.2.1-.7.6-.3,1.7-.3,2.5.3,1.1.4,2.2.3,3.2v.2h244.6v-.2c0-1,0-1.9.2-2.9.2-.9.3-1.8.2-2.6h.1ZM1060.6,315.9h-210.8l-32.4.2c-.8.1-1.1-.2-.9-1,0-.6,0-1,.4-1.4.3-.4.7-.7,1.2-1l14.7-9.9,1.5-1.2c-.2-.6-.3-1.3-.3-2.1v-14.3c.3-.5.7-.8,1.2-.9l13.4-5.1c.6-.3,1.3-.5,2.2-.5h175.8l3.9,1,12.3,4.8c.3.3.5.9.5,1.7v13.2l-.2,2.2,1.2,1.2,6.9,4.5c.2.2.4.3.6.5.6.5,1.2.9,1.8,1.4,1.3.9,2.6,1.7,3.8,2.5h0c.8.5,1.6,1,2.4,1.4.2.1.4.2.6.3.2.3.4.7.5,1.1v.6c.2.6,0,.9-.5.9h.2Z"/>
    <path class="st6" d="M1049,304.8c1,.6,2,1.3,3,2.1l9.4,6.5M833.3,301.8h0c.2-.4.3-.8.4-1.2"/>
    <path class="st31" d="M834.1,286c2.9,1.4,6.2,2.1,9.3,3.4,1.7.5,2.2,2.2,2.9,3.8l-2.4,1.7-9.6,6.5c-.2-.9-.3-1.9-.3-2.9l.2-12.5h-.1Z"/>
    <path class="st2" d="M834.1,286c2.9,1.4,6.2,2.1,9.3,3.4,1.7.5,2.2,2.2,2.9,3.8l-2.4,1.7-9.6,6.5c-.2-.9-.3-1.9-.3-2.9l.2-12.5h-.1Z"/>
    <path class="st31" d="M1034.2,289.3l9.3-3.3v13.2l-.2,2.2-8.1-5.5-3.9-2.7c.7-1.5,1.2-3.3,2.9-3.9h0Z"/>
    <path class="st2" d="M1034.2,289.3l9.3-3.3v13.2l-.2,2.2-8.1-5.5-3.9-2.7c.7-1.5,1.2-3.3,2.9-3.9h0Z"/>
    <path class="st28" d="M886.6,290.7c3.8-.9,8.1,2.6,7.7,6.5,0,3.9-4.1,7-7.9,6.2-1.5-.4-2.9-1.4-3.8-2.7-1.1-1.9-1.3-4.1-.5-6.2.9-1.9,2.4-3.2,4.5-3.8h0Z"/>
    <path class="st10" d="M886.6,290.7c3.8-.9,8.1,2.6,7.7,6.5,0,3.9-4.1,7-7.9,6.2-1.5-.4-2.9-1.4-3.8-2.7-1.1-1.9-1.3-4.1-.5-6.2.9-1.9,2.4-3.2,4.5-3.8h0Z"/>
    <path class="st28" d="M984.8,292.9c1.7-1.9,3.8-2.6,6.3-2.1,1.8.6,3.3,1.7,4.3,3.4,1.3,3.1.2,6.6-2.6,8.4-2.7,1.4-6,.8-8.1-1.4-1.9-2.5-1.9-5.9,0-8.4h0Z"/>
    <path class="st10" d="M984.8,292.9c1.7-1.9,3.8-2.6,6.3-2.1,1.8.6,3.3,1.7,4.3,3.4,1.3,3.1.2,6.6-2.6,8.4-2.7,1.4-6,.8-8.1-1.4-1.9-2.5-1.9-5.9,0-8.4h0Z"/>
    <path class="st15" d="M843.9,295.1l2.4-1.9.2.2c0,1.7.2,3.5.2,5.5v16.1h-30.2c-.3-1.2.7-1.7,1.5-2.4l14.7-9.9,1.5-1.2,9.6-6.3h0Z"/>
    <path class="st3" d="M843.9,295.1l2.4-1.9.2.2c0,1.7.2,3.5.2,5.5v16.1h-30.2c-.3-1.2.7-1.7,1.5-2.4l14.7-9.9,1.5-1.2,9.6-6.3h0Z"/>
    <path class="st15" d="M1030.9,294.4c0-.5,0-.9.3-1.2,1.1,1,2.5,1.9,3.9,2.7l8.1,5.5,1.2,1.2,6.9,4.5c.8.7,1.7,1.3,2.6,1.9,2.2,1.4,4.3,3.3,6.9,4.3.2.5.3,1,.3,1.7h-30l-.2-4.1v-16.5h0Z"/>
    <path class="st3" d="M1030.9,294.4c0-.5,0-.9.3-1.2,1.1,1,2.5,1.9,3.9,2.7l8.1,5.5,1.2,1.2,6.9,4.5c.8.7,1.7,1.3,2.6,1.9,2.2,1.4,4.3,3.3,6.9,4.3.2.5.3,1,.3,1.7h-30l-.2-4.1v-16.5h0Z"/>
  </g>
  <path class="st11" d="M984.8,292.9c1.7-1.9,3.8-2.6,6.3-2.1,1.8.6,3.3,1.7,4.3,3.4,1.3,3.1.2,6.6-2.6,8.4-2.7,1.4-6,.8-8.1-1.4-1.9-2.5-1.9-5.9,0-8.4h0ZM882,294.4c.9-1.9,2.5-3.2,4.6-3.8,3.5-.7,6.9,1.7,7.6,5.2,0,.4,0,.9,0,1.3,0,3.9-4.1,7-7.9,6.2-1.5-.4-2.9-1.4-3.8-2.7-1.1-1.9-1.3-4.1-.5-6.2h-.2.1ZM1061.1,315h-30l-.2-4.1v-16.5c0-.5,0-.9.3-1.2.7-1.5,1.2-3.3,2.9-3.9l9.3-3.3c0-.7-.2-1.3-.5-1.7l-12.3-4.8-4.1-1h-175.8l-2.2.5-13.2,5.1c-.5.1-.9.4-1.2.9v1c3.1,1.4,6.3,2.1,9.4,3.4,1.7.5,2.2,2.4,2.9,3.8l.2.2c0,1.7.2,3.5.2,5.5v16.1h-30.2c-.2.8,0,1.1.9,1l32.2-.2h211c.5,0,.6-.3.5-.9h-.1Z"/>
  <g class="st34">
    <g>
      <path class="st20" d="M991,335.9h8.2-8.2ZM991,335.9h8.2-8.2ZM991,335.9h8.2-8.2ZM991,335.9h8.2-8.2ZM991,335.7h8.2-8.2ZM991,335.7h8.2-8.2Z"/>
      <path class="st29" d="M991,335.7h8.2-8.2ZM991,335.7h8.2-8.2ZM991,335.6h8.2-8.2ZM991,335.6h8.2-8.2ZM991,335.6h8.2-8.2ZM991,335.6h8.2-8.2ZM991,335.6h8.2-8.2ZM991,335.4h8.2-8.2ZM991,335.4h8.2-8.2ZM991,335.4h8.2-8.2ZM991,335.4h8.2-8.2ZM991,335.2h8.2-8.2ZM991,335.2h8.2-8.2ZM991,335.2h8.2-8.2ZM991,335.2h8.2-8.2ZM991,335.2h8.2-8.2ZM991,335h8.2-8.2ZM991,335h8.2-8.2ZM991,335h8.2-8.2ZM991,335h8.2-8.2ZM991,334.9h8.2-8.2ZM991,334.9h8.2-8.2ZM991,334.9h8.2-8.2ZM991,334.9h8.2-8.2ZM991,334.9h8.2-8.2ZM991,334.7h8.2-8.2ZM991,334.7h8.2-8.2ZM991,334.7h8.2-8.2ZM991,334.5h8.2v.2l-8.2-.2ZM991,334.5h8.2-8.2ZM991,334.5h8.2-8.2ZM991,334.5h8.2-8.2ZM991,334.5h8.2-8.2ZM991,334.5h8.2-8.2Z"/>
      <path class="st27" d="M991,334.5h8.2-8.2ZM991,334.5h8.2-8.2ZM991,334.4h8.2-8.2ZM991,334.4h8.2-8.2ZM991,334.2h8.2-8.2ZM991,334.2h8.2-8.2ZM991,334.2h8.2-8.2ZM991,334.2h8.2-8.2ZM991,334.2h8.2-8.2ZM991,334h8.2-8.2ZM991,334h8.2-8.2ZM991,334h8.2-8.2ZM991,334h8.2-8.2ZM991,333.8h8.2-8.2ZM991,333.8h8.2-8.2ZM991,333.8h8.2-8.2ZM991,333.8h8.2-8.2Z"/>
      <g>
        <path class="st26" d="M991,333.8h8.2-8.2ZM991,333.7h8.2-8.2ZM991,333.7h8.2-8.2ZM991,333.7h8.2-8.2ZM991,333.7h8.2-8.2ZM991,333.5h8.2-8.2ZM991,333.5h8.2-8.2ZM991,333.5h8.2-8.2ZM991,333.5h8.2-8.2ZM991,333.5h8.2-8.2ZM991,333.3h8.2-8.2ZM991,333.3h8.2-8.2ZM991,333.3h8.2-8.2ZM991,333.3h8.2-8.2ZM991,333.2h8.2-8.2ZM991,333.2h8.2-8.2ZM991,333.2h8.2-8.2ZM991,333.2h8.2-8.2ZM991,333.2h8.2-8.2ZM991,333h8.2-8.2ZM991,333h8.2-8.2ZM991,332.8h8.2v.2h-8.2v-.2Z"/>
        <path class="st26" d="M991,332.8h8.2v.2l-8.2-.2ZM991,332.8h8.2-8.2ZM991,332.8h8.2-8.2ZM991,332.8h8.2-8.2ZM991,332.8h8.2-8.2ZM991,332.8h8.2-8.2ZM991,332.8h8.2-8.2ZM991,332.8h8.2-8.2ZM991,332.6h8.2-8.2ZM991,332.6h8.2-8.2ZM991,332.5h8.2-8.2ZM991,332.5h8.2-8.2Z"/>
      </g>
      <path class="st17" d="M991,332.5h8.2-8.2ZM991,332.5h8.2-8.2ZM991,332.5h8.2-8.2ZM991,332.3h8.2-8.2ZM991,332.3h8.2-8.2ZM991,332.3h8.2-8.2ZM991,332.3h8.2-8.2ZM991,332.1h8.2-8.2ZM991,332.1h8.2-8.2ZM991,332.1h8.2-8.2ZM991,332.1h8.2-8.2ZM991,332.1h8.2-8.2ZM991,332h8.2-8.2ZM991,332h8.2-8.2ZM991,332h8.2-8.2ZM991,332h8.2-8.2ZM991,331.8h8.2-8.2Z"/>
      <g>
        <path class="st23" d="M991,331.8h8.2-8.2ZM991,331.8h8.2-8.2ZM991,331.8h8.2-8.2ZM991,331.8h8.2-8.2ZM991,331.6h8.2-8.2ZM991,331.6h8.2-8.2ZM991,331.6h8.2-8.2ZM991,331.6h8.2-8.2ZM991,331.4h8.2-8.2ZM991,331.4h8.2-8.2ZM991,331.4h8.2-8.2ZM991,331.4h8.2-8.2ZM991,331.4h8.2-8.2ZM991,331.3h8.2-8.2ZM991,331.3h8.2-8.2ZM991,331.1h8.2v.2h-8.2v-.2Z"/>
        <path class="st23" d="M991,331.1h8.2v.2l-8.2-.2Z"/>
      </g>
      <path class="st18" d="M991,331.1h8.2-8.2ZM991,331.1h8.2-8.2ZM991,331.1h8.2-8.2ZM991,331.1h8.2-8.2ZM991,331.1h8.2-8.2ZM991,331.1h8.2-8.2ZM991,331.1h8.2-8.2ZM991,330.9h8.2-8.2ZM991,330.9h8.2-8.2ZM991,330.8h8.2-8.2ZM991,330.8h8.2-8.2ZM991,330.8h8.2-8.2ZM991,330.8h8.2-8.2ZM991,330.8h8.2-8.2ZM991,330.8h8.2-8.2ZM991,330.6h8.2-8.2ZM991,330.6h8.2-8.2Z"/>
      <g>
        <path class="st24" d="M991,330.6h8.2-8.2ZM991,330.4h8.2-8.2ZM991,330.4h8.2-8.2ZM991,330.4h8.2-8.2ZM991,330.4h8.2-8.2ZM991,330.4h8.2-8.2ZM991,330.4h8.2-8.2ZM991,330.2h8.2-8.2ZM991,330.2h8.2-8.2ZM991,330.2h8.2-8.2ZM991,330.1h8.2-8.2ZM991,330.1h8.2-8.2ZM991,330.1h8.2-8.2ZM991,330.1h8.2-8.2ZM991,330.1h8.2-8.2ZM991,330.1h8.2-8.2ZM991,329.9h8.2-8.2ZM991,329.9h8.2-8.2ZM991,329.9h8.2-8.2ZM991,329.7h8.2-8.2ZM991,329.7h8.2-8.2ZM991,329.7h8.2-8.2ZM991,329.7h8.2-8.2ZM991,329.7h8.2-8.2ZM991,329.7h8.2-8.2ZM991,329.6h8.2-8.2ZM991,329.4h8.2v.2h-8.2v-.2Z"/>
        <path class="st24" d="M991,329.4h8.2v.2l-8.2-.2ZM991,329.4h8.2-8.2ZM991,329.4h8.2-8.2ZM991,329.4h8.2-8.2ZM991,329.4h8.2-8.2ZM991,329.4h8.2-8.2ZM991,329.4h8.2-8.2Z"/>
      </g>
      <path class="st25" d="M991,329.4h8.2-8.2ZM991,329.2h8.2-8.2ZM991,329.2h8.2-8.2ZM991,329.2h8.2-8.2ZM991,329h8.2-8.2ZM991,329h8.2-8.2ZM991,329h8.2-8.2ZM991,329h8.2-8.2ZM991,329h8.2-8.2ZM991,328.9h8.2-8.2ZM991,328.9h8.2-8.2ZM991,328.9h8.2-8.2ZM991,328.9h8.2-8.2ZM991,328.7h8.2-8.2ZM991,328.7h8.2-8.2ZM991,328.7h8.2-8.2ZM991,328.7h8.2-8.2Z"/>
      <g>
        <path class="st30" d="M991,328.5h8.2-8.2ZM991,328.5h8.2-8.2ZM991,328.5h8.2-8.2ZM991,328.5h8.2-8.2ZM991,328.5h8.2-8.2ZM991,328.4h8.2-8.2ZM991,328.4h8.2-8.2ZM991,328.4h8.2-8.2ZM991,328.4h8.2-8.2ZM991,328.2h8.2-8.2ZM991,328.2h8.2-8.2ZM991,328.2h8.2-8.2ZM991,328.2h8.2-8.2ZM991,328.2h8.2-8.2ZM991,328h8.2-8.2ZM991,328h8.2-8.2ZM991,328h8.2-8.2ZM991,328h8.2-8.2ZM991,327.9h8.2-8.2ZM991,327.9h8.2-8.2ZM991,327.7h8.2v.2h-8.2v-.2Z"/>
        <path class="st30" d="M991,327.7h8.2v.2l-8.2-.2ZM991,327.7h8.2-8.2ZM991,327.7h8.2-8.2ZM991,327.7h8.2-8.2ZM991,327.7h8.2-8.2ZM991,327.7h8.2-8.2ZM991,327.7h8.2-8.2ZM991,327.7h8.2-8.2ZM991,327.5h8.2-8.2ZM991,327.5h8.2-8.2ZM991,327.5h8.2-8.2ZM991,327.3h8.2-8.2ZM991,327.3h8.2-8.2Z"/>
      </g>
      <path class="st22" d="M991,327.3h8.2-8.2ZM991,327.3h8.2-8.2ZM991,327.2h8.2-8.2ZM991,327.2h8.2-8.2ZM991,327.2h8.2-8.2ZM991,327.2h8.2-8.2ZM991,327h8.2-8.2ZM991,327h8.2-8.2ZM991,327h8.2-8.2ZM991,327h8.2-8.2ZM991,327h8.2-8.2ZM991,326.8h8.2-8.2ZM991,326.8h8.2-8.2ZM991,326.8h8.2-8.2ZM991,326.8h8.2-8.2ZM991,326.7h8.2-8.2ZM991,326.7h8.2-8.2Z"/>
      <path class="st14" d="M991,326.7h8.2-8.2ZM991,326.7h8.2-8.2ZM991,326.7h8.2-8.2ZM991,326.5h8.2-8.2ZM991,326.5h8.2-8.2ZM991,326.5h8.2-8.2ZM991,326.5h8.2-8.2ZM991,326.3h8.2-8.2ZM991,325.5h8.2v.9h-8.2v-.9Z"/>
    </g>
  </g>
  <path class="st11" d="M993.5,330.1c.5,0-2.6-2.9-1.9-3.1s2.6-1.5,5.1,0,1.7,4.3,1.7,5.5c-.6,1.4-1.3,2.3-2.1,2.9-.5.3-1,.6-1.7.7.3-1.7-.7-1.9-.9-3.6l-.3-2.4h.1Z"/>
  <g class="st33">
    <g>
      <path class="st20" d="M878.2,335.6h8.2-8.2ZM878.2,335.6h8.2-8.2ZM878.2,335.6h8.2-8.2ZM878.2,335.6h8.2-8.2ZM878.2,335.4h8.2-8.2ZM878.2,335.4h8.2-8.2ZM878.2,335.4h8.2-8.2ZM878.2,335.4h8.2-8.2ZM878.2,335.2h8.2-8.2Z"/>
      <path class="st29" d="M878.2,335.2h8.2-8.2ZM878.2,335.2h8.2-8.2ZM878.2,335.2h8.2-8.2ZM878.2,335.2h8.2-8.2ZM878.2,335h8.2-8.2ZM878.2,335h8.2-8.2ZM878.2,335h8.2-8.2ZM878.2,335h8.2-8.2ZM878.2,334.9h8.2-8.2ZM878.2,334.9h8.2-8.2ZM878.2,334.9h8.2-8.2ZM878.2,334.9h8.2-8.2ZM878.2,334.9h8.2-8.2ZM878.2,334.7h8.2-8.2ZM878.2,334.7h8.2-8.2ZM878.2,334.7h8.2-8.2ZM878.2,334.5h8.2v.2l-8.2-.2ZM878.2,334.5h8.2-8.2ZM878.2,334.5h8.2-8.2ZM878.2,334.5h8.2-8.2ZM878.2,334.5h8.2-8.2ZM878.2,334.5h8.2-8.2ZM878.2,334.5h8.2-8.2ZM878.2,334.5h8.2-8.2ZM878.2,334.4h8.2-8.2ZM878.2,334.4h8.2-8.2ZM878.2,334.2h8.2-8.2ZM878.2,334.2h8.2-8.2ZM878.2,334.2h8.2-8.2ZM878.2,334.2h8.2-8.2ZM878.2,334.2h8.2-8.2ZM878.2,334h8.2-8.2ZM878.2,334h8.2-8.2ZM878.2,334h8.2-8.2Z"/>
      <path class="st27" d="M878.2,334h8.2-8.2ZM878.2,333.8h8.2-8.2ZM878.2,333.8h8.2-8.2ZM878.2,333.8h8.2-8.2ZM878.2,333.8h8.2-8.2ZM878.2,333.8h8.2-8.2ZM878.2,333.7h8.2-8.2ZM878.2,333.7h8.2-8.2ZM878.2,333.7h8.2-8.2ZM878.2,333.7h8.2-8.2ZM878.2,333.5h8.2-8.2ZM878.2,333.5h8.2-8.2ZM878.2,333.5h8.2-8.2ZM878.2,333.5h8.2-8.2ZM878.2,333.5h8.2-8.2ZM878.2,333.3h8.2-8.2ZM878.2,333.3h8.2-8.2Z"/>
      <g>
        <path class="st26" d="M878.2,333.3h8.2-8.2ZM878.2,333.3h8.2-8.2ZM878.2,333.2h8.2-8.2ZM878.2,333.2h8.2-8.2ZM878.2,333.2h8.2-8.2ZM878.2,333.2h8.2-8.2ZM878.2,333.2h8.2-8.2ZM878.2,333h8.2-8.2ZM878.2,333h8.2-8.2ZM878.2,332.8h8.2v.2h-8.2v-.2Z"/>
        <path class="st26" d="M878.2,332.8h8.2v.2l-8.2-.2ZM878.2,332.8h8.2-8.2ZM878.2,332.8h8.2-8.2ZM878.2,332.8h8.2-8.2ZM878.2,332.8h8.2-8.2ZM878.2,332.8h8.2-8.2ZM878.2,332.8h8.2-8.2ZM878.2,332.8h8.2-8.2ZM878.2,332.6h8.2-8.2ZM878.2,332.6h8.2-8.2ZM878.2,332.5h8.2-8.2ZM878.2,332.5h8.2-8.2ZM878.2,332.5h8.2-8.2ZM878.2,332.5h8.2-8.2ZM878.2,332.5h8.2-8.2ZM878.2,332.3h8.2-8.2ZM878.2,332.3h8.2-8.2ZM878.2,332.3h8.2-8.2ZM878.2,332.3h8.2-8.2ZM878.2,332.1h8.2-8.2ZM878.2,332.1h8.2-8.2ZM878.2,332.1h8.2-8.2ZM878.2,332.1h8.2-8.2ZM878.2,332.1h8.2-8.2Z"/>
      </g>
      <path class="st17" d="M878.2,332h8.2-8.2ZM878.2,332h8.2-8.2ZM878.2,332h8.2-8.2ZM878.2,332h8.2-8.2ZM878.2,331.8h8.2-8.2ZM878.2,331.8h8.2-8.2ZM878.2,331.8h8.2-8.2ZM878.2,331.8h8.2-8.2ZM878.2,331.8h8.2-8.2ZM878.2,331.6h8.2-8.2ZM878.2,331.6h8.2-8.2ZM878.2,331.6h8.2-8.2ZM878.2,331.6h8.2-8.2ZM878.2,331.4h8.2-8.2ZM878.2,331.4h8.2-8.2ZM878.2,331.4h8.2-8.2ZM878.2,331.4h8.2-8.2Z"/>
      <g>
        <path class="st23" d="M878.2,331.4h8.2-8.2ZM878.2,331.4h8.2-8.2ZM878.2,331.3h8.2-8.2ZM878.2,331.1h8.2v.2h-8.2v-.2Z"/>
        <path class="st23" d="M878.2,331.1h8.2v.2l-8.2-.2ZM878.2,331.1h8.2-8.2ZM878.2,331.1h8.2-8.2ZM878.2,331.1h8.2-8.2ZM878.2,331.1h8.2-8.2ZM878.2,331.1h8.2-8.2ZM878.2,331.1h8.2-8.2ZM878.2,331.1h8.2-8.2ZM878.2,330.9h8.2-8.2ZM878.2,330.9h8.2-8.2ZM878.2,330.8h8.2-8.2ZM878.2,330.8h8.2-8.2ZM878.2,330.8h8.2-8.2Z"/>
      </g>
      <path class="st18" d="M878.2,330.8h8.2-8.2ZM878.2,330.8h8.2-8.2ZM878.2,330.8h8.2-8.2ZM878.2,330.6h8.2-8.2ZM878.2,330.6h8.2-8.2ZM878.2,330.6h8.2-8.2ZM878.2,330.4h8.2-8.2ZM878.2,330.4h8.2-8.2ZM878.2,330.4h8.2-8.2ZM878.2,330.4h8.2-8.2ZM878.2,330.4h8.2-8.2ZM878.2,330.4h8.2-8.2ZM878.2,330.2h8.2-8.2ZM878.2,330.2h8.2-8.2ZM878.2,330.2h8.2-8.2ZM878.2,330.2h8.2-8.2ZM878.2,330.1h8.2-8.2Z"/>
      <g>
        <path class="st24" d="M878.2,330.1h8.2-8.2ZM878.2,330.1h8.2-8.2ZM878.2,330.1h8.2-8.2ZM878.2,330.1h8.2-8.2ZM878.2,329.9h8.2-8.2ZM878.2,329.9h8.2-8.2ZM878.2,329.9h8.2-8.2ZM878.2,329.9h8.2-8.2ZM878.2,329.7h8.2-8.2ZM878.2,329.7h8.2-8.2ZM878.2,329.7h8.2-8.2ZM878.2,329.7h8.2-8.2ZM878.2,329.7h8.2-8.2ZM878.2,329.6h8.2-8.2ZM878.2,329.4h8.2v.2h-8.2v-.2Z"/>
        <path class="st24" d="M878.2,329.4h8.2v.2l-8.2-.2ZM878.2,329.4h8.2-8.2ZM878.2,329.4h8.2-8.2ZM878.2,329.4h8.2-8.2ZM878.2,329.4h8.2-8.2ZM878.2,329.4h8.2-8.2ZM878.2,329.4h8.2-8.2ZM878.2,329.4h8.2-8.2ZM878.2,329.2h8.2-8.2ZM878.2,329.2h8.2-8.2ZM878.2,329.2h8.2-8.2ZM878.2,329h8.2-8.2ZM878.2,329h8.2-8.2ZM878.2,329h8.2-8.2ZM878.2,329h8.2-8.2ZM878.2,328.9h8.2-8.2ZM878.2,328.9h8.2-8.2ZM878.2,328.9h8.2-8.2ZM878.2,328.9h8.2-8.2Z"/>
      </g>
      <path class="st25" d="M878.2,328.7h8.2-8.2ZM878.2,328.7h8.2-8.2ZM878.2,328.7h8.2-8.2ZM878.2,328.7h8.2-8.2ZM878.2,328.7h8.2-8.2ZM878.2,328.5h8.2-8.2ZM878.2,328.5h8.2-8.2ZM878.2,328.5h8.2-8.2ZM878.2,328.5h8.2-8.2ZM878.2,328.5h8.2-8.2ZM878.2,328.4h8.2-8.2ZM878.2,328.4h8.2-8.2ZM878.2,328.4h8.2-8.2ZM878.2,328.4h8.2-8.2ZM878.2,328.2h8.2-8.2ZM878.2,328.2h8.2-8.2ZM878.2,328.2h8.2-8.2Z"/>
      <path class="st30" d="M878.2,328.2h8.2-8.2ZM878.2,328.2h8.2-8.2ZM878.2,328h8.2-8.2ZM878.2,328h8.2-8.2ZM878.2,328h8.2-8.2ZM878.2,328h8.2-8.2ZM878.2,327.9h8.2-8.2ZM878.2,327.9h8.2-8.2ZM878.2,327.7h8.2v.2h-8.2v-.2ZM878.2,327.7h8.2-8.2ZM878.2,327.7h8.2-8.2ZM878.2,327.7h8.2-8.2ZM878.2,327.7h8.2-8.2ZM878.2,327.7h8.2-8.2ZM878.2,327.7h8.2-8.2ZM878.2,327.7h8.2-8.2ZM878.2,327.7h8.2-8.2ZM878.2,327.5h8.2-8.2ZM878.2,327.5h8.2-8.2ZM878.2,327.3h8.2-8.2ZM878.2,327.3h8.2-8.2ZM878.2,327.3h8.2-8.2ZM878.2,327.3h8.2-8.2ZM878.2,327.3h8.2-8.2ZM878.2,327.2h8.2-8.2ZM878.2,327.2h8.2-8.2ZM878.2,327.2h8.2-8.2ZM878.2,327.2h8.2-8.2ZM878.2,327h8.2-8.2ZM878.2,327h8.2-8.2ZM878.2,327h8.2-8.2ZM878.2,327h8.2-8.2ZM878.2,327h8.2-8.2ZM878.2,326.8h8.2-8.2Z"/>
      <path class="st22" d="M878.2,326.8h8.2-8.2ZM878.2,326.8h8.2-8.2ZM878.2,326.8h8.2-8.2ZM878.2,326.7h8.2-8.2ZM878.2,326.7h8.2-8.2ZM878.2,326.7h8.2-8.2ZM878.2,326.7h8.2-8.2ZM878.2,326.5h8.2-8.2ZM878.2,326.5h8.2-8.2ZM878.2,326.5h8.2-8.2ZM878.2,326.5h8.2-8.2ZM878.2,326.5h8.2-8.2ZM878.2,326.3h8.2-8.2ZM878.2,326.3h8.2-8.2ZM878.2,326.3h8.2-8.2ZM878.2,326.3h8.2-8.2ZM878.2,326.1h8.2-8.2Z"/>
      <path class="st14" d="M878.2,326.1h8.2-8.2ZM878.2,326.1h8.2-8.2ZM878.2,326h8.2v.2h-8.2v-.2ZM878.2,326h8.2-8.2ZM878.2,326h8.2-8.2ZM878.2,326h8.2-8.2ZM878.2,326h8.2-8.2ZM878.2,326h8.2-8.2ZM878.2,325.1h8.2v.9h-8.2v-.9Z"/>
    </g>
  </g>
  <path class="st5" d="M883.7,332l-1,3.9s-.5-.3-1.5-1c-1-.3-1.6-1.3-1.9-2.9-1-2.3-.5-4,1.5-5.3,2.9-1.9,4.9,0,4.9,0l-1.5,3.4-.5,1.9Z"/>
  <path class="st28" d="M989.1,352.4l1.5-.5c-3.6,9.1-8.9,17.3-16,24.8l-2.4,1.9-2.4,1.9-2.4,1.5c-1.6,1.3-3.6,2.4-5.8,3.4-3.9,1.6-8.1,2.9-12.6,3.9l-4.9,1h-10.2l-2.9-1-2.9-.5c-16-4.9-31.6-17-36-33v-3.4l1.5,2.9c6.2,14.3,18.8,24.8,34,28.2,1.3,0,2.6.3,3.9,1h15.1c5.8,0,11.5-1.5,17-4.4l3.4-1.5,2.4-1.5,2.4-1.9c6.8-5,12.1-11.7,15.5-19.4l1.9-3.4h0Z"/>
  <path class="st8" d="M989.1,352.4l1.5-.5c-3.6,9.1-8.9,17.3-16,24.8l-2.4,1.9-2.4,1.9-2.4,1.5c-1.6,1.3-3.6,2.4-5.8,3.4-3.9,1.6-8.1,2.9-12.6,3.9l-4.9,1h-10.2l-2.9-1-2.9-.5c-16-4.9-31.6-17-36-33v-3.4l1.5,2.9c6.2,14.3,18.8,24.8,34,28.2,1.3,0,2.6.3,3.9,1h15.1c5.8,0,11.5-1.5,17-4.4l3.4-1.5,2.4-1.5,2.4-1.9c6.8-5,12.1-11.7,15.5-19.4l1.9-3.4h0Z"/>
  <path class="st19" d="M983.8,383c10.4-6,22-9.3,34-9.7l11.2.5c2.6.6,4.9,1.6,6.8,2.9l-2.9-.5h-8.7c-8.4-.3-16.5.5-24.3,2.4-11.7,3.2-22,10-29.6,19.4-8.7,10-14.3,21.7-16.5,35l-3.4,20.4h-73.8l31.1-3.4h38.9l1-.5,3.4-17c1.5-7.7,4-15.2,7.3-22.3,5.9-11.3,14.8-20.7,25.7-27.2"/>
  <path class="st4" d="M983.8,383c10.4-6,22-9.3,34-9.7l11.2.5c2.6.6,4.9,1.6,6.8,2.9l-2.9-.5h-8.7c-8.4-.3-16.5.5-24.3,2.4-11.7,3.2-22,10-29.6,19.4-8.7,10-14.3,21.7-16.5,35l-3.4,20.4h-73.8l31.1-3.4h38.9l1-.5,3.4-17c1.5-7.7,4-15.2,7.3-22.3,5.9-11.3,14.8-20.7,25.7-27.2h-.2Z"/>
  <path class="st21" d="M999.8,378.6c7.8-1.9,15.9-2.9,24.3-2.9l8.7.5,2.9.5,3.4,4.9,3.4,14.6c0,1.9-.3,3.9-1,5.8-1,2.9-2.9,2.4-4.9,2.9-6.3,1.9-13.1,0-19.9,1.9-5.5,1-10.5,4-14.1,8.3-3.6,5.4-6.1,11.6-7.3,18l-3.4,17-.5,3.9h26.7c1,3.1,1.2,6.5.5,9.7l-2.9,11.2c-1.4,3-3.8,5.4-6.8,6.8h-22.8l-2.4,13.1-4.4,25.3v1h-45.2v-1,1c1.6.3,2.8,0,3.4-1l6.8-37.9h-2.9l-.5,1.5v-1.5h-35l-11.7-1h-14.6l-11.2-.5-7.3-.5-12.6-.5-13.1-.5h4.9c3.2-.6,6.5-1,9.7-1h9.7c2.9-.6,5.8-1,8.7-1l10.2-.5,8.7-.5,9.7-.5,9.7-.5v-3.9c-.6-1-1.5-1.3-2.4-1l-22.3-2.9h1.9l17-1.9h3.9c0-1.9-.5-3.7-1.5-5.3l-36.9-5.8,9.7-1h73.4l3.9-20.4c2.3-13,7.6-24.6,16-35,4.6-6.2,10.6-11.2,17.5-14.6l12.6-4.9h.3Z"/>
  <path class="st7" d="M999.8,378.6c7.8-1.9,15.9-2.9,24.3-2.9l8.7.5,2.9.5,3.4,4.9,3.4,14.6c0,1.9-.3,3.9-1,5.8-1,2.9-2.9,2.4-4.9,2.9-6.3,1.9-13.1,0-19.9,1.9-5.5,1-10.5,4-14.1,8.3-3.6,5.4-6.1,11.6-7.3,18l-3.4,17-.5,3.9h26.7c1,3.1,1.2,6.5.5,9.7l-2.9,11.2c-1.4,3-3.8,5.4-6.8,6.8h-22.8l-2.4,13.1-4.4,25.3v1h-45.2v-1,1c1.6.3,2.8,0,3.4-1l6.8-37.9h-2.9l-.5,1.5v-1.5h-35l-11.7-1h-14.6l-11.2-.5-7.3-.5-12.6-.5-13.1-.5h4.9c3.2-.6,6.5-1,9.7-1h9.7c2.9-.6,5.8-1,8.7-1l10.2-.5,8.7-.5,9.7-.5,9.7-.5v-3.9c-.6-1-1.5-1.3-2.4-1l-22.3-2.9h1.9l17-1.9h3.9c0-1.9-.5-3.7-1.5-5.3l-36.9-5.8,9.7-1h73.4l3.9-20.4c2.3-13,7.6-24.6,16-35,4.6-6.2,10.6-11.2,17.5-14.6l12.6-4.9h.3Z"/>
  <path class="st19" d="M992.1,450h19.4c3.2,0,5.5,1.3,6.8,3.9h-26.7l.5-3.9Z"/>
  <path class="st4" d="M992.1,450h19.4c3.2,0,5.5,1.3,6.8,3.9h-26.7l.5-3.9Z"/>
  <path class="st19" d="M941.5,482.1h2.9l-6.8,37.9c-.6,1-1.6,1.3-2.9,1v-1l6.3-36.4.5-1.5Z"/>
  <path class="st4" d="M941.5,482.1h2.9l-6.8,37.9c-.6,1-1.6,1.3-2.9,1v-1l6.3-36.4.5-1.5Z"/>
  <path class="st13" d="M995.5,331.5l-.5-1.9c-.6-1.6-1.9-2.6-3.9-2.9-1.3,0-2.4.3-3.4,1-1,1.9-1.1,4-.5,6.3l-.5,4.9v1.5c-1.2,3.7-2.8,7.3-4.9,10.7l-2.9,4.9-3.4,3.9-4.9,3.4c-9.7,6.2-19.8,9.1-30.1,8.7-9.4,0-18-1.8-25.7-5.3l-4.9-2.9-4.9-2.9-1-1-3.4-2.9-1-1c-3.5-4.2-6.3-9-8.3-14.1-1-3.9-1.5-8.1-1.5-12.6-1.3-2.3-3.2-2.9-5.8-1.9l-1.5,2.9c-.3,11.7,3.6,21.9,11.7,30.6l4.4,4.4,1,.5,3.9,3.4,1,.5,5.8,3.4c7.3,4.1,15.5,6.3,23.8,6.3h9.7c11.3-.6,21.7-3.9,31.1-9.7h1l3.9-3.9,1-.5,4.9-4.9,3.4-5.8v-.5c2.2-4,3.8-8.2,4.9-12.6l1-4.9.5-4.9v-.2Z"/>
  <g>
    <path class="st1" d="M995.5,331.5l-.5-1.9c-.6-1.6-1.9-2.6-3.9-2.9-1.3,0-2.4.3-3.4,1-1,1.9-1.1,4-.5,6.3l-.5,4.9v1.5c-1.2,3.7-2.8,7.3-4.9,10.7l-2.9,4.9-3.4,3.9-4.9,3.4c-9.7,6.2-19.8,9.1-30.1,8.7-9.4,0-18-1.8-25.7-5.3l-4.9-2.9-4.9-2.9-1-1-3.4-2.9-1-1c-3.5-4.2-6.3-9-8.3-14.1-1-3.9-1.5-8.1-1.5-12.6-1.3-2.3-3.2-2.9-5.8-1.9l-1.5,2.9c-.3,11.7,3.6,21.9,11.7,30.6l4.4,4.4,1,.5,3.9,3.4,1,.5,5.8,3.4c7.3,4.1,15.5,6.3,23.8,6.3h9.7c11.3-.6,21.7-3.9,31.1-9.7h1l3.9-3.9,1-.5,4.9-4.9,3.4-5.8v-.5c2.2-4,3.8-8.2,4.9-12.6l1-4.9.5-4.9v-.2Z"/>
    <path class="st9" d="M880.3,330c2.4,1,9.2-1.5,10.7.5M881.3,338.8c2.9-1,8.7-3.4,11.2-1.9M884.7,347l4.9-2.4,5.8-1.9M888.6,355.8l4.9-4.9c1.9-1,7.3-4.9,9.7-3.4M892.5,362.1l3.9-4.4c2.3-1,4.5-1.8,6.8-2.4M899.3,367c0-2.9,3.4-7.3,6.8-6.8M904.1,371.8c1.5,0,2.9-3.9,4.4-4.9,1.5-1.8,3.5-3,5.8-3.4M914.3,376.2c-.5-2.4,1.9-9.7,4.9-9.2M921.1,378.1c0-2.9,1.5-11.2,4.9-11.7M928.9,383c-1-4.9-.2-9.1,2.4-12.6M938.1,384c0-3.4-3.4-10.2,0-12.6M948.3,381.1c-1.5-1.5-2.4-8.7-1.9-10.7M958.1,380.1l-3.4-6.8v-4.9M965.8,376.2c-2.4-1.5-3.4-7.8-2.4-10.7M973.6,372.8c-2.3-3.2-3.6-7.1-3.9-11.7M981.4,366c-2.9-2.4-6.8-5.8-6.3-9.7M989.6,359.7c-5-1.5-9.5-4.5-12.6-8.7M993,351.9c-3.4-.5-13.6-4.9-13.1-8.7M996.4,343.6c-5.2-1.3-10-3.2-14.6-5.8M998.9,336.4l-9.7-1.5-9.2-2.4M996,329.6c-5.2,0-10.2-1.1-15.1-3.4"/>
  </g>
  <path class="st21" d="M305.6,346.1c5.5-1.6,10.4-1,14.6,1.9,2.6,2.3,3.9,5.2,3.9,8.7,0,5.5-2.4,10-7.3,13.6-4.3,1.9-9,2.6-13.6,1.9-3.2-.2-6.2-2-7.8-4.9-3.4-8.3,1-19.4,9.7-21.4"/>
  <path class="st7" d="M305.6,346.1c5.5-1.6,10.4-1,14.6,1.9,2.6,2.3,3.9,5.2,3.9,8.7,0,5.5-2.4,10-7.3,13.6-4.3,1.9-9,2.6-13.6,1.9-3.2-.2-6.2-2-7.8-4.9-3.4-8.3,1-19.4,9.7-21.4h.5v.2Z"/>
  <path class="st21" d="M156.4,351.9c.6-3.2,2.6-4.9,5.8-4.9h64.6c2.6-.6,4.7.2,6.3,2.4,1.5,2.9,0,5.8,0,8.7-1,4.4-.5,9.7-4.9,10.7h-48.1l-4.9,30.1v1.5h35c3.4,0,6.8,2.4,6.3,5.8l-1.5,10.7c-.3,2.3-1.9,3.9-4.9,4.9h-37.9l-6.3,42.8c-.6,3.2-2.4,5-5.3,5.3h-17.5c-3.4,0-5.8-3.9-4.9-6.8l18-111.3h.2Z"/>
  <path class="st7" d="M156.4,351.9c.6-3.2,2.6-4.9,5.8-4.9h64.6c2.6-.6,4.7.2,6.3,2.4,1.5,2.9,0,5.8,0,8.7-1,4.4-.5,9.7-4.9,10.7h-48.1l-4.9,30.1v1.5h35c3.4,0,6.8,2.4,6.3,5.8l-1.5,10.7c-.3,2.3-1.9,3.9-4.9,4.9h-37.9l-6.3,42.8c-.6,3.2-2.4,5-5.3,5.3h-17.5c-3.4,0-5.8-3.9-4.9-6.8l18-111.3h.2Z"/>
  <path class="st21" d="M252.1,347h14.6c3.2,0,5.3,1.6,6.3,4.9l-1,7.3-12.1,75.8c0,3.9-1.5,8.3,0,12.6s7.3,1.9,8.7,6.3c.6,3.9.6,7.4,0,10.7,0,4.9-5.8,5.8-9.7,6.8-7.8,1.5-17.5.5-23.3-5.8-3.6-5.2-4.7-11.2-3.4-18l15.1-95.7c0-2.9,1.6-4.5,4.9-4.9"/>
  <path class="st7" d="M252.1,347h14.6c3.2,0,5.3,1.6,6.3,4.9l-1,7.3-12.1,75.8c0,3.9-1.5,8.3,0,12.6s7.3,1.9,8.7,6.3c.6,3.9.6,7.4,0,10.7,0,4.9-5.8,5.8-9.7,6.8-7.8,1.5-17.5.5-23.3-5.8-3.6-5.2-4.7-11.2-3.4-18l15.1-95.7c0-2.9,1.6-4.5,4.9-4.9h0Z"/>
  <path class="st21" d="M438.7,351.9c.6-3.2,2.4-4.9,5.3-4.9h14.6c3.4-.5,6.3,3.4,5.3,6.8l-9.7,62.7c5.5-.3,10.2-2.3,14.1-5.8,5.8-6.5,10.7-13.9,14.6-22.3,1-2.9,1.5-7.3,5.3-8.3h16.5c3.4,0,6.3,4.4,4.9,7.8-1.3,4.9-3.2,9.6-5.8,14.1-5.5,9.1-12,17.2-19.4,24.3l11.7,31.1c1,3.4,3.9,7.3,1.5,10.7s-8.7,1.9-12.6,1.9-10.2,1.9-12.6-2.9l-12.6-31.1h-8.3l-.5,1.5-4.9,28.2c0,2.6-1.5,4.2-4.4,4.9h-15.1c-2.6,0-4.2-1.1-4.9-3.4-1-2.9-1-5,0-6.3l17-108.8v-.2Z"/>
  <path class="st7" d="M438.7,351.9c.6-3.2,2.4-4.9,5.3-4.9h14.6c3.4-.5,6.3,3.4,5.3,6.8l-9.7,62.7c5.5-.3,10.2-2.3,14.1-5.8,5.8-6.5,10.7-13.9,14.6-22.3,1-2.9,1.5-7.3,5.3-8.3h16.5c3.4,0,6.3,4.4,4.9,7.8-1.3,4.9-3.2,9.6-5.8,14.1-5.5,9.1-12,17.2-19.4,24.3l11.7,31.1c1,3.4,3.9,7.3,1.5,10.7s-8.7,1.9-12.6,1.9-10.2,1.9-12.6-2.9l-12.6-31.1h-8.3l-.5,1.5-4.9,28.2c0,2.6-1.5,4.2-4.4,4.9h-15.1c-2.6,0-4.2-1.1-4.9-3.4-1-2.9-1-5,0-6.3l17-108.8v-.2Z"/>
  <path class="st21" d="M700.1,362.1c.6-2.6,2.6-4,5.8-4.4h11.2c3.4,0,5.8,3.4,5.3,6.3l-2.4,16h11.2c3.2.2,5.6,3,5.4,6.2v.6l-1.5,8.7c0,2.7-2.2,4.9-4.9,4.9h-13.1l-6.3,37.9c0,3.2.5,6.2,1.5,8.7,2.4,2.9,6.8,1.9,10.7,2.4,3.2,1.3,4.5,3.6,3.9,6.8l-1.5,9.7c-1.6,2.9-4.4,4.5-8.3,4.9-8.3,1.9-18.5,1.9-25.7-2.9s-8.3-14.1-7.8-21.9l6.8-45.7c-2.9.3-5.5-.3-7.8-1.9-1.3-2.6-1.5-5.5-.5-8.7,1.5-4.9,0-7.3,3.9-8.7,2.6-.6,5.5-1,8.7-1l5.3-18h0Z"/>
  <path class="st7" d="M700.1,362.1c.6-2.6,2.6-4,5.8-4.4h11.2c3.4,0,5.8,3.4,5.3,6.3l-2.4,16h11.2c3.2.2,5.6,3,5.4,6.2v.6l-1.5,8.7c0,2.7-2.2,4.9-4.9,4.9h-13.1l-6.3,37.9c0,3.2.5,6.2,1.5,8.7,2.4,2.9,6.8,1.9,10.7,2.4,3.2,1.3,4.5,3.6,3.9,6.8l-1.5,9.7c-1.6,2.9-4.4,4.5-8.3,4.9-8.3,1.9-18.5,1.9-25.7-2.9s-8.3-14.1-7.8-21.9l6.8-45.7c-2.9.3-5.5-.3-7.8-1.9-1.3-2.6-1.5-5.5-.5-8.7,1.5-4.9,0-7.3,3.9-8.7,2.6-.6,5.5-1,8.7-1l5.3-18h0Z"/>
  <path class="st21" d="M647.1,392.7c5.8-6.2,12.8-10.5,20.9-13.1,3.9-1.9,8.3,1,8.3,4.9-.6,5.5-1.6,10.7-2.9,15.5-.3,2.9-1.9,4.5-4.9,4.9-9.1,2.3-17.4,7.2-23.8,14.1-1.9,1.6-3.2,3.7-3.9,6.3l-6.3,39.4c-.6,3.2-2.6,5-5.8,5.3h-14.1c-3.9-.3-5.8-2.4-5.8-6.3l12.1-77.7c.3-3.2,1.9-5.2,4.9-5.8h10.7c3.2.3,5,2.1,5.3,5.3v12.6l5.3-5.3h0Z"/>
  <path class="st7" d="M647.1,392.7c5.8-6.2,12.8-10.5,20.9-13.1,3.9-1.9,8.3,1,8.3,4.9-.6,5.5-1.6,10.7-2.9,15.5-.3,2.9-1.9,4.5-4.9,4.9-9.1,2.3-17.4,7.2-23.8,14.1-1.9,1.6-3.2,3.7-3.9,6.3l-6.3,39.4c-.6,3.2-2.6,5-5.8,5.3h-14.1c-3.9-.3-5.8-2.4-5.8-6.3l12.1-77.7c.3-3.2,1.9-5.2,4.9-5.8h10.7c3.2.3,5,2.1,5.3,5.3v12.6l5.3-5.3h0Z"/>
  <path class="st21" d="M295.4,380.6c4.9-.6,9.9-.6,15.1,0,3.2-.6,5.5.6,6.8,3.9l-1,7.8-11.2,72.9c0,2.9-1.9,4.5-5.8,4.9h-15.1c-3.4,0-5.3-3.9-4.9-6.8l12.1-75.3c0-3.2,1.3-5.7,3.9-7.3"/>
  <path class="st7" d="M295.4,380.6c4.9-.6,9.9-.6,15.1,0,3.2-.6,5.5.6,6.8,3.9l-1,7.8-11.2,72.9c0,2.9-1.9,4.5-5.8,4.9h-15.1c-3.4,0-5.3-3.9-4.9-6.8l12.1-75.3c0-3.2,1.3-5.7,3.9-7.3h.1Z"/>
  <path class="st21" d="M573.3,426.2c-4.1,6.9-9,13.3-14.6,18.9-3.9,3.6-8.1,5.2-12.6,4.9-6.8-.5-6.8-5.8-7.8-9.7-2-10.7,0-21.8,5.8-31.1,2.6-4.3,6.8-7.5,11.7-8.7,7-1.2,14.1-.9,20.9,1l-3.4,24.8h0ZM599.5,382.5c-13.8-3.2-28.1-4.3-42.3-3.4-13.2,1.2-25.3,7.7-33.5,18-10.7,13.6-14.6,32.1-11.7,49.1,1,8.7,4.7,16,11.2,21.9,6.3,4.9,14.6,4.9,22.3,3.9,10.7-1.9,19.4-8.7,26.7-16v9.7c.3,3.2,2.1,4.9,5.3,4.9h9.7c3.2-.3,5-1.9,5.3-4.9l12.1-76.8c0-3.6-1.6-5.7-4.9-6.3"/>
  <path class="st7" d="M573.3,426.2c-4.1,6.9-9,13.3-14.6,18.9-3.9,3.6-8.1,5.2-12.6,4.9-6.8-.5-6.8-5.8-7.8-9.7-2-10.7,0-21.8,5.8-31.1,2.6-4.3,6.8-7.5,11.7-8.7,7-1.2,14.1-.9,20.9,1l-3.4,24.8h0ZM599.5,382c-13.8-3.2-28.1-4.3-42.3-3.4-13.2,1.2-25.3,7.7-33.5,18-10.7,13.6-14.6,32.1-11.7,49.1,1,8.7,4.7,16,11.2,21.9,6.3,4.9,14.6,4.9,22.3,3.9,10.2-1.9,19.4-8.7,26.7-16v9.7c.3,3.2,2.1,4.9,5.3,4.9h9.7c3.2-.3,5-1.9,5.3-4.9l12.1-76.8c0-3.6-1.6-5.7-4.9-6.3h-.5.3Z"/>
  <path class="st21" d="M388.7,421.4c-.3,9-3.8,17.6-9.7,24.3-7.8,6.8-19.4,5.8-29.1,3.4l-.5-1,3.9-24.3c5.2-9.4,12.1-16.8,20.9-22.3,3.4-1.9,8.3-1.5,10.7,1.5,3.2,5.5,4.5,11.7,3.9,18.5M414.9,411.7c.1-9.4-3.1-18.6-9.2-25.7-4.6-5-11.2-7.8-18-7.8-11,.3-20.7,4.4-29.1,12.1-1.3,1.9-2.9,3.6-4.9,4.9v-9.7c-.3-2.9-1.9-4.5-4.9-4.9h-9.7c-2.6-.5-5.2,1.2-5.7,3.8,0,.4-.1.7,0,1.1l-18,113.2c-.5,3.2,1.6,6.2,4.8,6.7h17.1c3.9-1.5,3.9-6.3,4.9-9.7l2.9-24.8c18.9,3.4,40.3,1,53.9-13.1,11.7-12.1,16.5-29.1,16-45.7"/>
  <path class="st7" d="M388.7,421.4c-.3,9-3.8,17.6-9.7,24.3-7.8,6.8-19.4,5.8-29.1,3.4l-.5-1,3.9-24.3c5.2-9.4,12.1-16.8,20.9-22.3,3.4-1.9,8.3-1.5,10.7,1.5,3.2,5.5,4.5,11.7,3.9,18.5h0ZM414.9,411.7c.1-9.4-3.1-18.6-9.2-25.7-4.6-5-11.2-7.8-18-7.8-11,.3-20.7,4.4-29.1,12.1-1.3,1.9-2.9,3.6-4.9,4.9v-9.7c-.3-2.9-1.9-4.5-4.9-4.9h-9.7c-2.6-.5-5.2,1.2-5.7,3.8,0,.4-.1.7,0,1.1l-18,113.2c-.5,3.2,1.6,6.2,4.8,6.7h17.1c3.9-1.5,3.9-6.3,4.9-9.7l2.9-24.8c18.9,3.4,40.3,1,53.9-13.1,11.7-12.1,16.5-29.1,16-45.7v-.5h0Z"/>
</svg>